<?xml version="1.0" encoding="UTF-8" standalone="no"?>
<!-- Created with Inkscape (http://www.inkscape.org/) -->

<svg
   width="210mm"
   height="200mm"
   viewBox="0 0 210 200"
   version="1.1"
   id="svg14469"
   inkscape:version="1.1.2 (0a00cf5339, 2022-02-04)"
   sodipodi:docname="arduino.svg"
   xmlns:inkscape="http://www.inkscape.org/namespaces/inkscape"
   xmlns:sodipodi="http://sodipodi.sourceforge.net/DTD/sodipodi-0.dtd"
   xmlns="http://www.w3.org/2000/svg"
   xmlns:svg="http://www.w3.org/2000/svg">
  <sodipodi:namedview
     id="namedview14471"
     pagecolor="#505050"
     bordercolor="#eeeeee"
     borderopacity="1"
     inkscape:pageshadow="0"
     inkscape:pageopacity="0"
     inkscape:pagecheckerboard="0"
     inkscape:document-units="mm"
     showgrid="false"
     height="200mm"
     inkscape:zoom="0.5"
     inkscape:cx="539"
     inkscape:cy="380"
     inkscape:window-width="1366"
     inkscape:window-height="740"
     inkscape:window-x="0"
     inkscape:window-y="0"
     inkscape:window-maximized="1"
     inkscape:current-layer="layer1" />
  <defs
     id="defs14466" />
  <g
     inkscape:label="Layer 1"
     inkscape:groupmode="layer"
     id="layer1">
    <path
       id="path28691"
       style="stroke-width:3.52703;stroke-linecap:round;fill:#85d982;fill-opacity:1"
       d="M 104.8466,24.915437 A 73.972496,73.972496 0 0 0 30.874019,98.888183 73.972496,73.972496 0 0 0 104.8466,172.86041 73.972496,73.972496 0 0 0 178.81883,98.888183 73.972496,73.972496 0 0 0 104.8466,24.915437 Z M 76.529085,74.544966 c 0.238007,0.0015 0.477737,0.005 0.718294,0.01085 5.42478,0.132977 9.905256,1.262587 13.441485,3.388424 3.534619,2.166583 10.753056,7.520437 16.997876,14.402739 7.54329,-6.381202 10.83216,-11.314491 14.52417,-13.140798 3.69041,-1.785573 8.11849,-2.614862 13.28498,-2.488221 7.18142,0.176027 13.05966,2.583219 17.63458,7.222296 4.57493,4.639077 6.72825,10.361134 6.46008,17.165364 -0.2473,6.27456 -2.56842,11.37676 -6.96392,15.30656 -4.3955,3.9298 -9.8484,5.81452 -16.35818,5.65496 -5.37314,-0.13172 -9.92198,-1.48677 -13.64723,-4.06591 -3.72523,-2.57909 -7.58411,-7.01701 -11.57655,-13.31391 -7.37517,7.36411 -13.544375,12.33082 -18.506835,14.9009 -4.910793,2.57131 -10.439953,3.78201 -16.588037,3.6313 -8.163031,-0.20011 -14.584577,-2.60073 -19.264437,-7.20163 -4.681464,-4.56011 -6.874399,-10.58886 -6.578926,-18.085721 0.277818,-7.048701 2.933301,-12.754001 7.966438,-17.116785 4.925906,-4.225221 11.077844,-6.315464 18.456212,-6.270418 z m 0.379307,9.501745 c -6.339643,0.01427 -11.54882,1.328764 -15.627446,3.943427 -4.300477,2.830983 -6.544522,6.629688 -6.732405,11.396721 -0.160592,4.074391 1.310073,7.434631 4.412133,10.080011 3.153722,2.64664 7.313893,4.03331 12.480378,4.15995 1.498294,0.0361 2.870155,-0.0118 4.116519,-0.14418 1.298041,-0.13131 3.8e-4,4.3e-4 3.833856,-0.0289 12.949228,-1.72321 9e-5,-3e-5 5.68593,-0.3483 6.051144,-3.95039 2.002508,-0.9505 3.174462,-1.81901 1.170341,-0.82775 2.128898,-1.53823 2.876292,-2.13166 0.797447,-0.55141 1.841321,-1.44313 3.131052,-2.6758 1.289734,-1.23267 2.311098,-2.22739 3.064915,-2.9838 0.752214,-0.71565 2.678022,-3.45915 4.188872,-5.053442 1.56252,-1.593038 2.91549,-2.431208 0.54002,-3.763079 -3.576941,-3.717385 -7.19523,-6.395719 -10.854059,-8.035168 -3.608779,-1.597437 -7.944795,-2.458164 -13.007925,-2.582272 -0.432687,-0.0106 -0.859957,-0.01542 -1.282594,-0.01447 z m 62.273068,2.074291 c -4.14077,0.0395 -8.096,1.140778 -11.86595,3.304191 -3.97121,2.349653 -8.39188,6.258481 -13.26172,11.726417 0.0985,0.12486 0.59277,0.70787 1.4826,1.74925 0.88982,1.0414 1.55876,1.79197 2.00608,2.25155 0.49898,0.46083 1.27224,1.17311 2.32027,2.13682 1.09809,1.00571 2.15327,1.78593 3.1657,2.34094 1.01242,0.55499 2.22996,1.15585 3.65249,1.80247 1.42252,0.64663 2.98043,1.13339 4.67413,1.46038 1.6937,0.327 3.49685,0.51384 5.40846,0.56069 5.47647,0.13432 9.86591,-1.02243 13.1687,-3.47008 3.35284,-2.40558 5.11277,-5.72688 5.27978,-9.96425 0.15577,-3.952161 -1.18904,-7.227454 -4.03438,-9.825758 -2.84533,-2.598303 -6.56703,-3.953708 -11.16521,-4.066418 -0.2777,-0.0068 -0.5549,-0.0088 -0.83095,-0.0062 z m -2.72852,5.328875 h 4.55941 v 5.684922 h 5.68493 v 4.559421 h -5.68493 v 5.68492 h -4.55941 v -5.68492 h -5.68492 v -4.559421 h 5.68492 z m -68.919144,5.684922 h 15.92868 v 4.559421 h -15.92868 z" />
    <g
       aria-label="8"
       id="text15751"
       style="font-size:70.5556px;font-family:KacstOne;-inkscape-font-specification:'KacstOne, Normal';fill:#85d982;stroke:#85d982;stroke-width:1.9;stroke-linecap:round"
       transform="matrix(-0.04663046,1.5002546,-1.5002546,-0.04663046,191.81308,-49.968938)" />
  </g>
</svg>
